<svg xmlns="http://www.w3.org/2000/svg" viewBox="5 5 490 140">
  <defs>
    <style>
      @import url('https://fonts.googleapis.com/css2?family=Montserrat:wght@700;800&amp;display=swap');
      .navy { fill: #0A2E5C; }
      .green { fill: #00A878; }
      .white { fill: #FFFFFF; }
      .text-navy { fill: #0A2E5C; font-family: 'Montserrat', sans-serif; font-weight: 800; }
      .text-green { fill: #00A878; font-family: 'Montserrat', sans-serif; font-weight: 800; }
    </style>
    <!-- Define the Master Shield Shape Clip Path -->
    <clipPath id="shield-clip">
       <!-- Clean Shield Curve -->
       <path d="M20,20 L130,20 L130,60 Q130,120 75,140 Q20,120 20,60 Z" />
    </clipPath>
  </defs>

  <!-- Logo Icon Group -->
  <g transform="translate(10, 5) scale(0.9)">
    
    <!-- We draw the content and clip it to the shield shape. This prevents any 'distortion' or mismatch at edges. -->
    <g clip-path="url(#shield-clip)">
        <!-- 1. Background: Navy Blue -->
        <rect x="0" y="0" width="150" height="150" class="navy" />
        
        <!-- 2. Green Bottom-Right Area -->
        <!-- Diagonal split -->
        <polygon points="0,150 150,150 150,0" class="green" transform="translate(0, 50)" />
        <!-- Adjusting polygon to match the visual cut (Low Left to High Right) -->
         <path d="M-20,120 L160,50 L160,160 L-20,160 Z" class="green" />

        <!-- 3. White Diagonal Stripe -->
        <path d="M-20,115 L160,45 L160,55 L-20,125 Z" class="white" />
    </g>
    
    <!-- 4. The Star (On top, not clipped, or clipped? Usually on top of the stripe) -->
    <!-- Position it on the white stripe center -->
    <!-- Coord approx: x=90, y=75 ? based on stripe pos -->
    <path class="white" d="M85,55 Q90,75 105,80 Q90,85 85,105 Q80,85 65,80 Q80,75 85,55 Z" />
    <!-- Adding a sharper inner curve for "sparkle" effect -->

  </g>

  <!-- Text Section -->
  <text x="165" y="85" font-size="56" class="text-navy">CLEANSHINE</text>
  
  <!-- "PRO" with Lines -->
  <g transform="translate(165, 105)">
    <line x1="0" y1="-8" x2="110" y2="-8" stroke="#0A2E5C" stroke-width="2" />
    <text x="120" y="5" font-size="28" class="text-green" font-weight="900">PRO</text>
    <line x1="195" y1="-8" x2="330" y2="-8" stroke="#0A2E5C" stroke-width="2" />
  </g>
</svg>
